<?xml version="1.0" ?>
<!DOCTYPE svg  PUBLIC '-//W3C//DTD SVG 1.1//EN'  'http://www.w3.org/Graphics/SVG/1.1/DTD/svg11.dtd'>
<!-- Uploaded to: SVG Repo, www.svgrepo.com, Generator: SVG Repo Mixer Tools -->
<svg fill="#000000" width="800px" height="800px" viewBox="0 0 512 512" enable-background="new 0 0 512 512" id="closet_1_" version="1.1" xml:space="preserve" xmlns="http://www.w3.org/2000/svg" xmlns:xlink="http://www.w3.org/1999/xlink">
<g id="closet">
<path d="M109.006,420.994h293.988v-84.721H109.006V420.994z M116.206,343.475h279.588v70.319H116.206V343.475z"/>
<path d="M416.839,67.006H95.162c-5.6,0-10.156,4.557-10.156,10.156v232.156c0,1.027,0.156,2.02,0.442,2.955h-0.442v132.721h341.988   V312.273h-0.441c0.285-0.936,0.441-1.928,0.441-2.955V251.47v-70.4V77.162C426.994,71.563,422.438,67.006,416.839,67.006z    M92.206,77.162c0-1.63,1.326-2.956,2.956-2.956h154.784v36.464H92.206V77.162z M139.146,141.87c3.529,0,6.4,2.871,6.4,6.4v78.95   c0,0.138-0.112,0.25-0.25,0.25h-12.3c-0.138,0-0.25-0.113-0.25-0.25v-78.95C132.746,144.741,135.617,141.87,139.146,141.87z    M92.206,117.87h42.068v17.718c-5.096,1.964-8.728,6.901-8.728,12.682v78.95c0,4.108,3.341,7.45,7.45,7.45h12.3   c4.108,0,7.45-3.342,7.45-7.45v-78.95c0-6.704-4.88-12.276-11.271-13.386V117.87h54.2v17.317   c-5.719,1.608-9.928,6.857-9.928,13.083v78.95c0,4.108,3.342,7.45,7.45,7.45h12.3c4.108,0,7.45-3.342,7.45-7.45v-78.95   c0-6.277-4.281-11.56-10.072-13.12v-17.28h47.072v63.2h-0.004v70.4h0.004v60.803H219.35c0.743-1.582,1.171-3.342,1.171-5.203   c0-1.822-0.409-3.547-1.123-5.104h2.714c6.785,0,12.305-5.521,12.305-12.305s-5.52-12.305-12.305-12.305h-4.159   c0.714-1.558,1.123-3.282,1.123-5.104c0-6.785-5.521-12.305-12.305-12.305H128.98c-6.785,0-12.305,5.52-12.305,12.305   c0,6.784,5.52,12.305,12.305,12.305h4.159c-0.714,1.557-1.123,3.282-1.123,5.104s0.409,3.547,1.123,5.104h-2.714   c-6.785,0-12.305,5.521-12.305,12.305c0,1.861,0.428,3.621,1.17,5.203H95.162c-1.63,0-2.956-1.325-2.956-2.955V117.87z    M199.346,141.87c3.529,0,6.4,2.871,6.4,6.4v78.95c0,0.138-0.112,0.25-0.25,0.25h-12.3c-0.138,0-0.25-0.113-0.25-0.25v-78.95   C192.946,144.741,195.817,141.87,199.346,141.87z M208.216,294.766h-63.896c-2.815,0-5.104-2.29-5.104-5.104   c0-2.815,2.29-5.104,5.104-5.104h62.451h15.34c2.815,0,5.104,2.289,5.104,5.104c0,2.814-2.29,5.104-5.104,5.104H208.216z    M213.321,307.07c0,2.814-2.29,5.104-5.104,5.104h-77.791c-2.815,0-5.104-2.29-5.104-5.104s2.29-5.104,5.104-5.104h13.896h63.896   C211.031,301.966,213.321,304.256,213.321,307.07z M128.98,277.356c-2.815,0-5.104-2.29-5.104-5.104s2.29-5.105,5.104-5.105h77.791   c2.814,0,5.104,2.291,5.104,5.105s-2.29,5.104-5.104,5.104h-62.451H128.98z M419.794,437.794H92.206V319.475h2.956h321.677h2.955   V437.794z M419.794,309.318c0,1.63-1.325,2.955-2.955,2.955H257.146V251.47h162.647V309.318z M419.794,244.27H257.146v-56h162.647   V244.27z M419.794,181.07H257.146V74.206h159.692c1.63,0,2.955,1.326,2.955,2.956V181.07z"/>
<rect height="7.201" width="32.8" x="237.946" y="375.033"/>
</g>
</svg>