<!DOCTYPE svg PUBLIC "-//W3C//DTD SVG 1.1//EN" "http://www.w3.org/Graphics/SVG/1.1/DTD/svg11.dtd">
<!-- Uploaded to: SVG Repo, www.svgrepo.com, Transformed by: SVG Repo Mixer Tools -->
<svg height="800px" width="800px" version="1.1" id="_x32_" xmlns="http://www.w3.org/2000/svg" xmlns:xlink="http://www.w3.org/1999/xlink" viewBox="-15.36 -15.36 542.72 542.72" xml:space="preserve" fill="#" stroke="#" stroke-width="0.00512">
<g id="SVGRepo_bgCarrier" stroke-width="0"/>
<g id="SVGRepo_tracerCarrier" stroke-linecap="round" stroke-linejoin="round" stroke="#c9ace1" stroke-width="19.456"> <style type="text/css"> .st0{fill:#000000;} </style> <g> <path class="st0" d="M506.663,405.366c-3.461-6.338-8.574-11.877-15.002-15.908L261.733,245.175v-20.395 c-0.004-0.702,0.333-1.336,0.836-1.784c2.056-0.18,4.778-0.508,7.98-1.135c6.559-1.299,15.178-3.688,23.833-9.272 c12.695-8.256,23.217-19.498,30.597-32.787c7.375-13.288,11.586-28.652,11.582-44.859c0.008-25.501-10.392-48.756-27.106-65.456 c-16.693-16.714-39.947-27.099-65.44-27.099c-19.108,0-37.013,5.83-51.765,15.812c-14.759,9.98-26.464,24.075-33.508,40.708 c-3.811,9.011,0.411,19.41,9.421,23.224c9.014,3.808,19.417-0.403,23.225-9.413c4.322-10.228,11.59-18.984,20.712-25.144 c9.13-6.158,20.026-9.742,31.914-9.742c15.815,0,29.984,6.36,40.376,16.73c10.362,10.384,16.718,24.553,16.722,40.38 c-0.004,10.093-2.58,19.447-7.126,27.651c-4.547,8.19-11.079,15.178-18.917,20.269c-3.054,2.038-7.6,3.531-11.274,4.217 c-1.828,0.351-3.415,0.538-4.449,0.62c-0.522,0.052-0.9,0.075-1.097,0.082h-0.105l-2.404,0.03l-2.359,0.702 c-16.065,4.756-27.091,19.507-27.095,36.267v20.94L18.578,390.622l0.004-0.014C6.716,398.886-0.011,412.301,0,426.217 c0,4.344,0.658,8.742,2.001,13.004c5.684,18.096,22.444,30.391,41.399,30.391h425.197c19.35,0,36.352-12.803,41.708-31.399v-0.008 c1.132-3.964,1.695-8.003,1.695-11.989C512,418.863,510.13,411.711,506.663,405.366z M476.242,428.426v-0.008 c-0.978,3.397-4.102,5.756-7.644,5.756H43.4c-3.475,0-6.548-2.27-7.585-5.569c-0.258-0.806-0.369-1.605-0.369-2.389 c0.007-2.553,1.224-5.017,3.4-6.525h0.008L244.53,276.224l228.292,143.251c1.206,0.762,2.102,1.747,2.748,2.912 c0.642,1.164,0.989,2.486,0.989,3.83C476.559,426.941,476.454,427.665,476.242,428.426z"/> </g> </g>
<g id="SVGRepo_iconCarrier"> <style type="text/css"> .st0{fill:#000000;} </style> <g> <path class="st0" d="M506.663,405.366c-3.461-6.338-8.574-11.877-15.002-15.908L261.733,245.175v-20.395 c-0.004-0.702,0.333-1.336,0.836-1.784c2.056-0.18,4.778-0.508,7.98-1.135c6.559-1.299,15.178-3.688,23.833-9.272 c12.695-8.256,23.217-19.498,30.597-32.787c7.375-13.288,11.586-28.652,11.582-44.859c0.008-25.501-10.392-48.756-27.106-65.456 c-16.693-16.714-39.947-27.099-65.44-27.099c-19.108,0-37.013,5.83-51.765,15.812c-14.759,9.98-26.464,24.075-33.508,40.708 c-3.811,9.011,0.411,19.41,9.421,23.224c9.014,3.808,19.417-0.403,23.225-9.413c4.322-10.228,11.59-18.984,20.712-25.144 c9.13-6.158,20.026-9.742,31.914-9.742c15.815,0,29.984,6.36,40.376,16.73c10.362,10.384,16.718,24.553,16.722,40.38 c-0.004,10.093-2.58,19.447-7.126,27.651c-4.547,8.19-11.079,15.178-18.917,20.269c-3.054,2.038-7.6,3.531-11.274,4.217 c-1.828,0.351-3.415,0.538-4.449,0.62c-0.522,0.052-0.9,0.075-1.097,0.082h-0.105l-2.404,0.03l-2.359,0.702 c-16.065,4.756-27.091,19.507-27.095,36.267v20.94L18.578,390.622l0.004-0.014C6.716,398.886-0.011,412.301,0,426.217 c0,4.344,0.658,8.742,2.001,13.004c5.684,18.096,22.444,30.391,41.399,30.391h425.197c19.35,0,36.352-12.803,41.708-31.399v-0.008 c1.132-3.964,1.695-8.003,1.695-11.989C512,418.863,510.13,411.711,506.663,405.366z M476.242,428.426v-0.008 c-0.978,3.397-4.102,5.756-7.644,5.756H43.4c-3.475,0-6.548-2.27-7.585-5.569c-0.258-0.806-0.369-1.605-0.369-2.389 c0.007-2.553,1.224-5.017,3.4-6.525h0.008L244.53,276.224l228.292,143.251c1.206,0.762,2.102,1.747,2.748,2.912 c0.642,1.164,0.989,2.486,0.989,3.83C476.559,426.941,476.454,427.665,476.242,428.426z"/> </g> </g>
</svg>