<?xml version="1.0" encoding="iso-8859-1"?>
<!-- Uploaded to: SVG Repo, www.svgrepo.com, Generator: SVG Repo Mixer Tools -->
<svg fill="#000000" version="1.1" id="Layer_1" xmlns="http://www.w3.org/2000/svg" xmlns:xlink="http://www.w3.org/1999/xlink" 
	 viewBox="0 0 512 512" xml:space="preserve">
<g>
	<g>
		<path d="M4.171,47.967v103.234h80.154v176.391h151.711v-15.642H99.966v-8.505h16.824v-15.642H99.966v-71.951h184.206v31.973
			h15.642v-96.625h79.754V47.967H4.171z M84.325,135.56H43.796v-14.599H28.155v14.599h-8.342V63.609h8.342v49.01h15.642v-49.01
			h40.528V135.56z M228.214,63.794v4.17c0,19.93-16.215,36.146-36.146,36.146c-19.93,0-36.146-16.215-36.146-36.146v-4.17H228.214z
			 M99.966,63.794h40.316v4.17c0,28.555,23.232,51.787,51.787,51.787c28.555,0,51.787-23.232,51.787-51.787v-4.17h40.316v87.408
			H99.966V63.794z M284.173,200.212H99.966v-33.369h184.206V200.212z M363.927,135.56h-7.299v-14.599h-15.642v14.599h-41.172V63.609
			h41.172v49.01h15.642v-49.01h7.299V135.56z"/>
	</g>
</g>
<g>
	<g>
		<rect x="179.356" y="72.994" width="25.026" height="15.642"/>
	</g>
</g>
<g>
	<g>
		<rect x="125.132" y="287.805" width="14.599" height="15.642"/>
	</g>
</g>
<g>
	<g>
		<rect x="148.073" y="287.805" width="14.599" height="15.642"/>
	</g>
</g>
<g>
	<g>
		<rect x="171.014" y="287.805" width="16.684" height="15.642"/>
	</g>
</g>
<g>
	<g>
		<rect x="196.041" y="287.805" width="16.684" height="15.642"/>
	</g>
</g>
<g>
	<g>
		<rect x="220.024" y="287.805" width="15.642" height="15.642"/>
	</g>
</g>
<g>
	<g>
		<path d="M316.148,279.975v39.623h63.606v-39.623H316.148z M364.112,303.957H331.79v-8.34h32.323V303.957z"/>
	</g>
</g>
<g>
	<g>
		<path d="M244.202,255.994v222.299c0,9.206-6.855,17.053-15.28,17.495c-4.495,0.233-8.756-1.332-12.003-4.412
			c-3.249-3.083-5.039-7.248-5.039-11.726v-71.926h23.786v-15.642H211.88v-8.532h24.155v-15.642h-39.796v111.741
			c0,8.683,3.613,17.092,9.913,23.071c5.803,5.507,13.246,8.548,21.171,8.717L332.644,512v-15.642h-77.905
			c3.234-5.204,5.106-11.412,5.106-18.066V303.446h47.772v-15.642h-47.773v-16.169h176.212v16.169h-49.189v15.642h49.19v165.751
			c0,14.675-11.939,26.614-26.614,26.614H355.77V375.902h-23.809v15.642h8.167v119.909h69.315c23.3,0,42.255-18.956,42.255-42.255
			V255.994H244.202z"/>
	</g>
</g>
<g>
	<g>
		<path d="M284.173,311.778v31.977c0,8.91-7.25,16.16-16.161,16.16v15.642c17.535,0,31.802-14.266,31.802-31.802v-31.976H284.173z"
			/>
	</g>
</g>
<g>
	<g>
		<path d="M411.729,343.754v-31.977h-15.642v31.977c0,17.536,14.267,31.802,31.802,31.802v-15.642
			C418.979,359.915,411.729,352.665,411.729,343.754z"/>
	</g>
</g>
<g>
	<g>
		<rect x="340.986" y="328.473" width="15.642" height="31.283"/>
	</g>
</g>
<g>
	<g>
		<polygon points="52.138,248.179 52.138,231.495 36.497,231.495 36.497,248.179 19.813,248.179 19.813,263.821 36.497,263.821 
			36.497,280.505 52.138,280.505 52.138,263.821 68.823,263.821 68.823,248.179 		"/>
	</g>
</g>
<g>
	<g>
		<rect x="60.481" y="215.853" width="15.642" height="15.642"/>
	</g>
</g>
<g>
	<g>
		<rect x="12.513" y="287.805" width="15.642" height="15.642"/>
	</g>
</g>
<g>
	<g>
		<polygon points="491.145,423.365 491.145,406.68 475.503,406.68 475.503,423.365 459.862,423.365 459.862,439.006 
			475.503,439.006 475.503,455.69 491.145,455.69 491.145,439.006 507.829,439.006 507.829,423.365 		"/>
	</g>
</g>
<g>
	<g>
		<polygon points="475.503,16.684 475.503,0 459.862,0 459.862,16.684 443.177,16.684 443.177,32.326 459.862,32.326 
			459.862,47.967 475.503,47.967 475.503,32.326 492.187,32.326 492.187,16.684 		"/>
	</g>
</g>
<g>
	<g>
		<polygon points="372.269,208.554 372.269,191.87 356.627,191.87 356.627,208.554 340.986,208.554 340.986,224.196 
			356.627,224.196 356.627,238.794 372.269,238.794 372.269,224.196 386.868,224.196 386.868,208.554 		"/>
	</g>
</g>
<g>
	<g>
		<polygon points="124.09,431.707 124.09,415.022 108.448,415.022 108.448,431.707 92.807,431.707 92.807,447.348 108.448,447.348 
			108.448,462.99 124.09,462.99 124.09,447.348 139.731,447.348 139.731,431.707 		"/>
	</g>
</g>
<g>
	<g>
		<rect x="475.503" y="368.098" width="16.684" height="15.642"/>
	</g>
</g>
<g>
	<g>
		<rect x="483.845" y="479.674" width="15.642" height="15.642"/>
	</g>
</g>
<g>
	<g>
		<rect x="380.611" y="23.984" width="14.599" height="15.642"/>
	</g>
</g>
<g>
	<g>
		<rect x="395.21" y="40.668" width="15.642" height="15.642"/>
	</g>
</g>
<g>
	<g>
		<rect x="475.503" y="80.293" width="16.684" height="15.642"/>
	</g>
</g>
<g>
	<g>
		<rect x="404.595" y="231.495" width="14.599" height="15.642"/>
	</g>
</g>
<g>
	<g>
		<rect x="467.161" y="191.87" width="16.684" height="15.642"/>
	</g>
</g>
<g>
	<g>
		<rect x="92.807" width="14.599" height="15.642"/>
	</g>
</g>
<g>
	<g>
		<rect x="139.731" y="23.984" width="16.684" height="15.642"/>
	</g>
</g>
<g>
	<g>
		<rect x="52.138" y="455.69" width="16.684" height="15.642"/>
	</g>
</g>
<g>
	<g>
		<rect x="107.405" y="488.016" width="17.727" height="15.642"/>
	</g>
</g>
<g>
	<g>
		<rect x="156.415" y="368.098" width="14.599" height="15.642"/>
	</g>
</g>
</svg>