<!DOCTYPE svg PUBLIC "-//W3C//DTD SVG 1.1//EN" "http://www.w3.org/Graphics/SVG/1.1/DTD/svg11.dtd">
<!-- Uploaded to: SVG Repo, www.svgrepo.com, Transformed by: SVG Repo Mixer Tools -->
<svg width="800px" height="800px" viewBox="0 0 64 64" version="1.1" xmlns="http://www.w3.org/2000/svg" xmlns:xlink="http://www.w3.org/1999/xlink" fill="#000000">
<g id="SVGRepo_bgCarrier" stroke-width="0"/>
<g id="SVGRepo_tracerCarrier" stroke-linecap="round" stroke-linejoin="round"/>
<g id="SVGRepo_iconCarrier"> <title>clo-converse</title> <desc>Created with Sketch.</desc> <defs> </defs> <g id="General" stroke="none" stroke-width="1" fill="none" fill-rule="evenodd"> <g id="SLICES-64px" transform="translate(-90.000000, -200.000000)"> </g> <g id="ICONS" transform="translate(-85.000000, -195.000000)"> <g id="clo-converse" transform="translate(90.000000, 208.000000)"> <path d="M0,38 C0,39.104 0.896,40 2,40 L50,40 C51.104,40 52,39.104 52,38 L52,34 L0,34 L0,38 Z" id="Fill-508" fill="#FFFFFF"> </path> <path d="M38,24.3813 L38,34.0003 L52,34.0003 C52,26.5503 44.982,25.6953 38,24.3813" id="Fill-509" fill="#FFFFFF"> </path> <path d="M38,34 L38,24.381 C33.813,23.593 29.64,22.64 27,20 C23.869,16.87 22,9.798 22,5 C22,1.65 19.374,0 16.288,0 L0,0 L0,34 L38,34 Z" id="Fill-510" fill="#e4ed3a"> </path> <path d="M52,34 L52,38 C52,39.104 51.104,40 50,40 L2,40 C0.896,40 0,39.104 0,38 L0,0 L16.288,0 C19.374,0 22,1.65 22,5 C22,9.798 23.869,16.87 27,20 C34.042,27.042 52,22.083 52,34 Z" id="Stroke-511" stroke="#1E69A0" stroke-width="2" stroke-linecap="round" stroke-linejoin="round"> </path> <path d="M16,0 C16,0.29 16.001,0.624 16.005,0.996" id="Stroke-512" stroke="#1E69A0" stroke-width="2" stroke-linecap="round" stroke-linejoin="round"> </path> <path d="M16.1504,4.9707 C16.5164,10.5307 17.7644,18.4617 22.0004,22.9997 C25.8384,27.1137 31.5544,28.4107 35.0144,28.8177" id="Stroke-513" stroke="#1E69A0" stroke-width="2" stroke-linecap="round" stroke-linejoin="round" stroke-dasharray="1.99,3.98"> </path> <path d="M37.0029,28.981 C37.6349,29.009 37.9999,29 37.9999,29" id="Stroke-514" stroke="#1E69A0" stroke-width="2" stroke-linecap="round" stroke-linejoin="round"> </path> <path d="M0,34 L52,34" id="Stroke-515" stroke="#1E69A0" stroke-width="2" stroke-linecap="round" stroke-linejoin="round"> </path> <path d="M8,26 C8,27.104 7.104,28 6,28 C4.896,28 4,27.104 4,26 C4,24.896 4.896,24 6,24 C7.104,24 8,24.896 8,26 Z" id="Stroke-516" stroke="#1E69A0" stroke-width="2" stroke-linecap="round" stroke-linejoin="round"> </path> <path d="M16,26 C16,27.104 15.104,28 14,28 C12.896,28 12,27.104 12,26 C12,24.896 12.896,24 14,24 C15.104,24 16,24.896 16,26 Z" id="Stroke-517" stroke="#1E69A0" stroke-width="2" stroke-linecap="round" stroke-linejoin="round"> </path> <path d="M38,34 L38,24.381" id="Stroke-518" stroke="#1E69A0" stroke-width="2" stroke-linecap="round" stroke-linejoin="round"> </path> </g> </g> </g> </g>
</svg>