<?xml version="1.0" encoding="iso-8859-1"?>
<!-- Uploaded to: SVG Repo, www.svgrepo.com, Generator: SVG Repo Mixer Tools -->
<!DOCTYPE svg PUBLIC "-//W3C//DTD SVG 1.1//EN" "http://www.w3.org/Graphics/SVG/1.1/DTD/svg11.dtd">
<svg fill="#000000" version="1.1" id="Capa_1" xmlns="http://www.w3.org/2000/svg" xmlns:xlink="http://www.w3.org/1999/xlink" 
	 width="800px" height="800px" viewBox="0 0 576.555 576.555"
	 xml:space="preserve">
<g>
	<g>
		<g>
			<path d="M123.238,331.231l251.716,229.607c10.756,9.812,24.637,15.216,39.086,15.216c14.895,0,29.09-5.619,39.965-15.824
				c5.68-5.328,10.154-11.628,13.299-18.725c3.299-7.443,4.971-15.391,4.971-23.621V58.67c0-8.23-1.672-16.177-4.969-23.619
				c-3.145-7.097-7.619-13.397-13.299-18.727C443.13,6.12,428.937,0.5,414.042,0.5c-0.002,0-0.004,0-0.004,0
				c-14.447,0-28.328,5.404-39.084,15.216L123.239,245.323c-12.049,10.99-18.959,26.646-18.959,42.954
				C104.28,304.585,111.19,320.241,123.238,331.231z M152.109,276.973L403.823,47.366c3.047-2.78,6.67-4.026,10.217-4.026
				c7.885,0,15.395,6.16,15.395,15.33v459.214c0,9.17-7.512,15.33-15.395,15.33c-3.547,0-7.168-1.246-10.217-4.026L152.109,299.581
				C145.458,293.514,145.458,283.041,152.109,276.973z"/>
			<path d="M414.04,576.555c-14.574,0-28.575-5.45-39.423-15.347L122.901,331.601c-12.152-11.085-19.121-26.876-19.121-43.323
				c0-16.448,6.97-32.239,19.122-43.324L374.617,15.346C385.466,5.451,399.465,0,414.038,0c15.026,0,29.341,5.668,40.311,15.96
				c5.729,5.375,10.242,11.73,13.414,18.889c3.325,7.506,5.012,15.521,5.012,23.821v459.214c0,8.302-1.687,16.317-5.014,23.823
				c-3.172,7.158-7.685,13.513-13.414,18.887C443.38,570.887,429.065,576.555,414.04,576.555z M414.042,1
				c-14.327,0-28.087,5.358-38.751,15.085L123.576,245.693c-11.945,10.896-18.796,26.417-18.796,42.584
				c0,16.167,6.851,31.688,18.795,42.585L375.291,560.47c10.663,9.728,24.425,15.085,38.749,15.085
				c14.77,0,28.842-5.571,39.623-15.688c5.631-5.283,10.066-11.528,13.184-18.562c3.27-7.379,4.928-15.258,4.928-23.419V58.67
				c0-8.16-1.657-16.038-4.926-23.416c-3.117-7.035-7.553-13.281-13.184-18.564C442.881,6.572,428.81,1,414.042,1z M414.04,533.714
				c-3.922,0-7.571-1.438-10.554-4.157L151.772,299.95c-3.274-2.986-5.152-7.24-5.152-11.673c0-4.432,1.877-8.687,5.152-11.674
				L403.486,46.997c2.98-2.719,6.63-4.157,10.554-4.157c4.034,0,8.042,1.589,10.996,4.361c3.159,2.964,4.898,7.037,4.898,11.469
				v459.214C429.935,527.661,421.685,533.714,414.04,533.714z M414.04,43.84c-3.67,0-7.086,1.347-9.88,3.896L152.446,277.343
				c-3.067,2.797-4.826,6.783-4.826,10.935c0,4.151,1.759,8.137,4.826,10.935L404.16,528.818c2.795,2.549,6.211,3.896,9.88,3.896
				c7.163,0,14.895-5.67,14.895-14.83V58.67c0-4.153-1.628-7.967-4.583-10.74C421.581,45.331,417.822,43.84,414.04,43.84z"/>
		</g>
	</g>
</g>
</svg>